<?xml version="1.0" encoding="utf-8"?>
<!-- Generator: Adobe Illustrator 15.0.0, SVG Export Plug-In . SVG Version: 6.00 Build 0)  -->
<!DOCTYPE svg PUBLIC "-//W3C//DTD SVG 1.1//EN" "http://www.w3.org/Graphics/SVG/1.1/DTD/svg11.dtd">
<svg version="1.1" id="Layer_1" xmlns="http://www.w3.org/2000/svg" xmlns:xlink="http://www.w3.org/1999/xlink" x="0px" y="0px"
	 width="277.9px" height="93.402px" viewBox="0 0 277.9 93.402" enable-background="new 0 0 277.9 93.402" xml:space="preserve">
<path fill="#FFFFFF" d="M253.738,62.649c-0.003,0.182-0.006,0.363-0.003,0.543c0.128,4.75,2.265,9.427,6.859,9.427
	c6.237,0,13.157-6.767,16.997-11.871l-0.566-2.731c-3.335,3.017-8.622,8.27-13.092,8.27c-2.018,0-4.09-0.934-3.902-3.668
	l0.126-1.585c12.087-4.532,15.169-9.853,15.169-13.376c0-2.882-2.52-3.455-4.533-3.455c-6.674-0.06-13.973,6.345-16.301,13.82
	c-3.65,3.239-8.984,8.048-13.66,8.048c-3.273,0-4.783-2.229-4.783-3.882c0-2.018,1.134-3.097,2.52-4.246l5.286-4.528
	c0.063,1.362,0.69,3.159,2.138,3.159c1.702,0,6.674-5.534,6.674-9.492c0-2.158-0.881-3.31-2.834-3.31
	c-3.522,0-9.563,3.886-12.398,6.331c-3.282,2.824-5.143,4.826-5.751,8.625c-2.19,2.006-7.009,6.336-9.229,6.336
	c-1.006,0-1.572-0.431-1.572-1.58c0-3.24,4.467-8.925,6.483-11.008c1.005-1.011,2.705-2.66,2.577-4.387
	c-0.25-3.743-0.943-3.959-1.447-3.959c-1.572,0-7.738,6.831-9.063,8.202l-6.229,6.402c-2.959,3.02-6.421,5.106-7.555,5.106
	c-0.439,0-0.502-0.719-0.502-1.079c0-3.021,1.511-4.604,3.462-6.188c2.455-2.015,2.831-2.658,4.786-5.178
	c0.688-0.647,2.389-2.661,2.514-3.814c0.252-2.155-2.959-1.51-3.836-1.51c-1.072,0-1.891,0.141-2.771,0.792
	c-3.094,2.321-6.59,7.106-8.047,12.362c-2.627,2.644-7.047,6.627-10.271,6.627c-1.701,0-2.58-1.437-3.144-3.091
	c-0.317-1.729-0.129-3.739,0.438-4.964c13.658-15.11,15.293-21.439,15.735-28.269c0.062-0.938-0.188-2.66-1.26-2.66
	c-2.014,0-7.989,6.688-13.53,14.53c-3.181,4.472-5.597,10.38-6.513,16.336c-1.918,1.664-3.666,4.298-6.391,3.73
	c1.193-2.807,2.452-5.318,2.452-8.488c0-2.157-0.377-3.668-2.265-4.243c0.691-0.434,1.447-0.861,1.447-1.943
	c0-1.942-2.076-2.661-3.464-2.589c-3.837,0.216-8.37,2.158-11.768,5.324c-3.109,2.73-5.29,5.854-5.673,10.262l-0.242-1.485
	c-2.077,1.8-6.043,6.474-8.751,6.474c-0.944,0-1.952-0.864-1.952-2.015c0-2.878,3.085-6.401,4.914-8.203
	c1.443-1.365,2.641-2.441,2.641-4.675c-0.127-1.294-0.563-2.443-1.511-3.812c-0.628-0.861-4.092,0-10.009,0.935
	c0.254-0.646,0.445-1.294,0.445-2.011c0-0.649-0.506-1.224-1.139-1.224c-1.51,0-7.93,5.181-7.93,10.359
	c0,1.512,0.38,2.086,1.701,2.229c-0.806,1.307-1.676,2.536-2.65,3.671c-3.207,2.892-7.307,6.255-10.884,6.255
	c-2.014,0-4.09-0.934-3.902-3.668l0.129-1.585c12.083-4.532,15.168-9.853,15.168-13.376c0-2.882-2.516-3.455-4.532-3.455
	c-6.446-0.057-13.475,5.912-16.048,13.055l-0.004-0.032l-3.777,3.596c-1.132,1.081-3.903,3.596-5.412,3.596
	c-0.627,0-1.132-0.646-1.132-1.294c0-4.965,7.74-10.432,7.74-13.238c-0.188-1.511-0.567-2.803-0.942-3.882
	c-0.379-1.007-0.756-1.369-1.009-1.369c-1.41,0-8.638,5.281-14.179,11.064c-1.631,1.703-3.12,3.45-4.263,5.123
	c-0.253,0.36-0.817,1.006-1.262,1.006c-0.376,0-0.688-0.36-0.688-0.793c0-1.206,3.88-5.127,6.213-8.334
	c0.999-1.374,1.716-2.618,1.716-3.461c0-0.349,0.204-1.075-1.716-1.416c-0.454-0.081-1.024-0.138-1.745-0.165
	c-1.07,0-1.638,0.068-2.456,0.86c-3.649,3.527-7.616,10.793-7.425,15.754c0.063,2.446,0.754,6.981,3.524,6.981
	c1.698,0,4.027-3.527,4.973-4.893c0.993-1.465,2.039-2.874,3.129-4.224c2.015-2.495,4.194-4.777,6.564-6.784l0.125,0.144
	c-2.014,3.31-5.415,8.055-5.415,12.374c0,2.447,1.138,4.749,3.527,4.749c3.984,0,9.384-6.647,12.923-10.621
	c-0.022,0.396-0.034,0.796-0.022,1.194c0.129,4.75,2.268,9.427,6.862,9.427c6.231,0,13.156-6.767,16.995-11.871l-0.028-0.145
	c1.263-1.336,2.462-2.787,3.555-4.748l6.545-1.652l0.123,0.143c-2.517,3.452-5.79,7.264-5.79,12.156c0,2.734,1.637,5.54,4.28,5.54
	c3.471,0,10.357-7.469,12.971-10.758c0,0.108-0.009,0.216-0.004,0.325c0.252,6.547,3.272,10.288,6.545,10.288
	c3.967,0,7.047-2.304,9.693-5.396c3.991,0,6.607-1.303,9.076-4.331c-0.003,0.221-0.016,0.444-0.016,0.663
	c0,4.244,1.01,9.349,5.607,9.349c4.43,0,9.198-4.865,12.682-8.882c-0.014,0.254-0.031,0.504-0.031,0.758
	c0,3.088,1.697,7.116,4.781,7.116c3.461,0,7.682-6.471,10.135-8.917l0.125,0.146c-0.627,1.868-1.32,3.883-1.32,6.041
	c0,2.521,1.387,4.748,3.712,4.748c4.198,0,10.029-6.713,13.49-10.621c0.19,5.073,2.514,9.832,7.157,9.832
	C243.787,72.403,249.736,67.104,253.738,62.649 M269.033,48.373c0.438-0.145,0.754,0.289,0.754,0.794
	c0.066,1.22-3.715,6.186-9.255,8.342C262.232,52.762,265.885,49.31,269.033,48.373 M199.164,35.426
	c-1.133,4.101-5.033,11.006-9.504,15.755l-0.129-0.142C192.492,43.626,196.078,37.151,199.164,35.426 M126.783,48.373
	c0.44-0.145,0.754,0.289,0.754,0.794c0.063,1.22-3.712,6.186-9.256,8.342C119.984,52.762,123.63,49.31,126.783,48.373
	 M169.269,63.77c-1.451,1.509-2.771,2.875-4.847,2.875c-1.575,0-2.769-0.646-2.769-2.732c0-2.231,1.193-5.036,2.577-6.619
	c1.889-2.083,4.85-3.814,6.989-5.248c0.25,0.143-2.706,4.672-2.706,8.416C168.514,61.681,168.826,62.618,169.269,63.77"/>
<rect x="83.212" y="82.333" fill="#FFFFFF" width="1.545" height="10.607"/>
<polygon fill="#FFFFFF" points="93.411,91.475 93.411,82.333 91.863,82.333 91.863,92.94 93.784,92.94 96.902,92.94 96.902,91.475 
	93.784,91.475 "/>
<polygon fill="#FFFFFF" points="104.935,82.333 103.397,82.333 103.397,92.942 108.434,92.942 108.434,91.475 104.935,91.475 "/>
<path fill="#FFFFFF" d="M119.815,89.079c0,0.953-0.141,1.612-0.413,1.996c-0.266,0.379-0.735,0.566-1.396,0.566
	c-0.693,0-1.182-0.182-1.47-0.555c-0.284-0.376-0.439-1.046-0.439-2.008v-6.746h-1.54v6.733c0,0.792,0.046,1.365,0.126,1.716
	c0.084,0.349,0.222,0.665,0.409,0.946c0.342,0.496,0.745,0.85,1.216,1.08c0.473,0.227,1.046,0.343,1.725,0.343
	c0.628,0,1.172-0.119,1.629-0.354c0.464-0.232,0.855-0.592,1.181-1.083c0.182-0.28,0.307-0.612,0.394-0.997
	c0.075-0.385,0.123-0.933,0.123-1.65v-6.733h-1.545V89.079z"/>
<polygon fill="#FFFFFF" points="133.762,90.534 130.67,82.335 128.383,82.335 128.383,92.943 129.868,92.943 129.755,83.73 
	133.201,92.943 134.303,92.943 137.764,83.73 137.66,92.943 139.112,92.943 139.112,82.335 136.851,82.335 "/>
<rect x="146.254" y="82.333" fill="#FFFFFF" width="1.545" height="10.607"/>
<polygon fill="#FFFFFF" points="161.723,90.36 156.492,82.333 154.9,82.333 154.9,92.942 156.445,92.942 156.347,84.673 
	161.693,92.942 163.17,92.942 163.17,82.333 161.654,82.333 "/>
<polygon fill="#FFFFFF" points="186.515,83.761 188.51,83.761 188.51,92.94 190.059,92.94 190.059,83.761 192.047,83.761 
	192.047,82.333 186.515,82.333 "/>
<polygon fill="#FFFFFF" points="198.333,92.942 203.87,92.942 203.87,91.475 199.881,91.475 199.881,88.294 203.87,88.294 
	203.87,86.915 199.881,86.915 199.881,83.749 203.87,83.749 203.87,82.333 198.333,82.333 "/>
<path fill="#FFFFFF" d="M213.304,84.768c0.347-0.355,0.748-0.636,1.202-0.828c0.451-0.184,0.931-0.278,1.434-0.278
	c0.635,0,1.198,0.116,1.689,0.354c0.504,0.241,0.927,0.591,1.266,1.062h1.814c-0.418-0.942-1.049-1.667-1.868-2.181
	c-0.833-0.519-1.792-0.776-2.882-0.776c-0.723,0-1.412,0.131-2.043,0.392c-0.635,0.26-1.201,0.643-1.728,1.149
	c-0.534,0.542-0.959,1.144-1.239,1.805c-0.287,0.665-0.428,1.369-0.428,2.107c0,0.722,0.116,1.409,0.352,2.048
	c0.238,0.643,0.58,1.207,1.033,1.71c0.539,0.597,1.146,1.058,1.825,1.363c0.675,0.304,1.41,0.457,2.208,0.457
	c1.082,0,2.03-0.248,2.846-0.739c0.819-0.49,1.461-1.204,1.924-2.133h-1.912c-0.312,0.439-0.715,0.771-1.199,1.006
	c-0.495,0.229-1.043,0.341-1.658,0.341c-0.496,0-0.982-0.096-1.461-0.313c-0.476-0.206-0.902-0.501-1.27-0.882
	c-0.344-0.355-0.61-0.783-0.795-1.275c-0.183-0.492-0.278-1.011-0.278-1.57c0-0.514,0.106-1.018,0.308-1.515
	C212.646,85.574,212.934,85.144,213.304,84.768"/>
<polygon fill="#FFFFFF" points="234.352,90.36 229.119,82.333 227.527,82.333 227.527,92.942 229.076,92.942 228.972,84.673 
	234.324,92.942 235.802,92.942 235.802,82.333 234.277,82.333 "/>
<rect x="242.912" y="82.333" fill="#FFFFFF" width="1.54" height="10.607"/>
<path fill="#FFFFFF" d="M253.859,84.768c0.348-0.355,0.748-0.636,1.208-0.828c0.445-0.184,0.929-0.278,1.433-0.278
	c0.629,0,1.197,0.116,1.688,0.354c0.505,0.241,0.923,0.591,1.26,1.062h1.818c-0.422-0.942-1.043-1.667-1.871-2.181
	c-0.825-0.519-1.79-0.776-2.883-0.776c-0.727,0-1.406,0.131-2.039,0.392c-0.635,0.26-1.205,0.643-1.723,1.149
	c-0.545,0.542-0.961,1.144-1.239,1.805c-0.286,0.665-0.433,1.369-0.433,2.107c0,0.722,0.123,1.409,0.352,2.048
	c0.236,0.643,0.578,1.207,1.04,1.71c0.532,0.597,1.136,1.058,1.815,1.363c0.674,0.304,1.412,0.457,2.215,0.457
	c1.078,0,2.02-0.248,2.841-0.739c0.817-0.49,1.456-1.204,1.925-2.133h-1.904c-0.316,0.439-0.72,0.771-1.208,1.006
	c-0.491,0.229-1.043,0.341-1.653,0.341c-0.5,0-0.987-0.096-1.465-0.313c-0.477-0.206-0.9-0.501-1.271-0.882
	c-0.345-0.355-0.61-0.783-0.792-1.275c-0.191-0.492-0.281-1.011-0.281-1.57c0-0.514,0.104-1.018,0.307-1.515
	C253.209,85.574,253.49,85.144,253.859,84.768"/>
<path fill="#FFFFFF" d="M179.059,83.676c-0.529-0.521-1.113-0.902-1.748-1.165c-0.64-0.257-1.332-0.39-2.078-0.39
	c-0.729,0-1.408,0.133-2.041,0.39c-0.633,0.263-1.205,0.642-1.72,1.149c-0.552,0.535-0.965,1.134-1.249,1.802
	c-0.283,0.664-0.424,1.366-0.424,2.11c0,0.724,0.12,1.41,0.352,2.047c0.234,0.644,0.576,1.207,1.029,1.713
	c0.54,0.598,1.146,1.055,1.823,1.36c0.675,0.304,1.416,0.46,2.211,0.46c0.799,0,1.536-0.156,2.218-0.454
	c0.678-0.3,1.301-0.745,1.844-1.343c0.472-0.504,0.826-1.07,1.061-1.706c0.236-0.628,0.354-1.326,0.354-2.077
	c0-0.759-0.141-1.467-0.412-2.121C180.004,84.8,179.596,84.201,179.059,83.676 M177.98,90.457c-0.736,0.782-1.664,1.169-2.767,1.169
	c-0.497,0-0.979-0.095-1.462-0.312c-0.477-0.21-0.902-0.5-1.266-0.883c-0.344-0.358-0.61-0.782-0.799-1.278
	c-0.188-0.491-0.274-1.011-0.274-1.568c0-0.515,0.099-1.02,0.304-1.517c0.204-0.495,0.491-0.926,0.857-1.303
	c0.348-0.354,0.758-0.633,1.205-0.824c0.455-0.188,0.938-0.281,1.435-0.281c0.562,0,1.073,0.102,1.536,0.308
	c0.467,0.21,0.895,0.525,1.3,0.963c0.345,0.371,0.604,0.781,0.786,1.226c0.171,0.441,0.264,0.911,0.264,1.403
	C179.1,88.712,178.723,89.677,177.98,90.457"/>
<path fill="#FFFFFF" d="M270.863,82.333l-4.168,10.608h1.632l1.207-3.094h4.13l1.175,3.094h1.69l-4.166-10.608H270.863z
	 M270.078,88.359l1.531-4.03l1.498,4.03H270.078z"/>
<polygon fill="#FFFFFF" points="0.15,0.129 0.15,93.152 58.314,93.152 57.511,88.189 57.322,87.288 57.175,86.39 57.131,85.947 
	57.109,85.507 57.131,85.067 57.175,84.65 57.278,84.23 57.424,83.811 57.615,83.412 57.826,83.036 58.1,82.661 58.375,82.323 
	59.659,81.048 59.956,80.713 60.207,80.355 60.397,79.978 60.523,79.539 60.589,79.101 60.567,78.658 60.46,78.26 60.291,77.862 
	60.082,77.465 59.831,77.088 59.301,76.312 58.775,75.518 58.521,75.138 58.247,74.802 57.933,74.489 57.594,74.24 57.194,74.069 
	56.773,73.944 56.331,73.863 55.888,73.756 55.696,73.675 55.508,73.568 55.32,73.443 55.171,73.295 54.875,72.962 54.645,72.563 
	54.435,72.145 54.266,71.705 54.158,71.264 54.118,70.844 54.139,70.633 54.181,70.423 54.266,70.235 54.35,70.047 54.604,69.695 
	54.938,69.36 55.361,69.065 55.847,68.771 56.352,68.498 56.836,68.247 57.238,68.016 57.403,67.891 57.531,67.769 57.615,67.661 
	57.656,67.559 57.656,67.43 57.594,67.327 57.511,67.201 57.362,67.094 57.175,66.99 56.962,66.889 56.499,66.655 55.972,66.445 
	55.467,66.237 55.003,66.048 54.582,65.839 54.202,65.651 53.823,65.421 53.485,65.19 53.15,64.94 52.832,64.646 52.497,64.311 
	52.197,63.953 51.925,63.574 51.716,63.18 51.59,62.779 51.545,62.572 51.545,62.363 51.569,62.175 51.632,61.965 51.778,61.563 
	52.009,61.168 52.283,60.791 52.832,60.018 53.084,59.616 53.294,59.24 53.467,58.842 53.569,58.422 53.61,58.003 53.61,57.563 
	53.548,56.662 53.485,55.679 53.422,55.222 53.315,54.799 53.231,54.611 53.129,54.444 53.003,54.297 52.832,54.171 52.644,54.088 
	52.451,54.002 51.988,53.9 51.506,53.834 51.042,53.834 50.579,53.878 50.111,53.939 49.269,54.151 48.426,54.381 47.562,54.569 
	47.144,54.654 46.701,54.694 46.256,54.716 45.814,54.716 45.352,54.694 44.91,54.632 44.023,54.462 43.579,54.315 43.159,54.171 
	42.738,53.981 42.338,53.771 41.938,53.541 41.559,53.291 41.198,53.019 40.863,52.706 40.544,52.391 40.271,52.032 40.021,51.679 
	39.785,51.281 39.597,50.881 39.429,50.486 39.304,50.044 39.218,49.605 39.152,49.163 39.134,48.726 39.134,48.263 39.152,47.824 
	39.218,47.384 39.304,46.943 39.409,46.527 39.535,46.085 39.871,45.269 40.293,44.472 40.778,43.718 41.303,42.985 41.894,42.292 
	42.504,41.644 43.75,40.345 44.361,39.695 44.91,39.025 45.414,38.336 45.856,37.582 46.216,36.806 46.51,35.965 47.04,34.271 
	47.291,33.413 47.584,32.573 47.899,31.737 48.258,30.92 48.641,30.12 49.042,29.349 49.902,27.818 51.716,24.785 52.581,23.234 
	52.98,22.437 53.294,21.597 53.422,21.179 53.507,20.737 53.569,20.299 53.589,19.86 53.569,19.396 53.529,18.958 53.441,18.521 
	53.294,18.098 53.129,17.721 52.915,17.346 52.665,17.009 52.389,16.675 51.778,16.046 51.105,15.415 50.449,14.789 49.821,14.119 
	49.522,13.763 49.269,13.387 49.042,12.988 48.829,12.568 48.641,12.149 48.489,11.73 48.386,11.291 48.302,10.871 48.24,10.434 
	48.24,9.991 48.258,9.554 48.341,9.115 48.449,8.694 48.574,8.275 48.913,7.457 49.313,6.642 49.755,5.845 50.681,4.337 
	53.507,0.129 "/>
</svg>
